<?xml version="1.0" standalone="no"?>
<!DOCTYPE svg PUBLIC "-//W3C//DTD SVG 20010904//EN"
 "http://www.w3.org/TR/2001/REC-SVG-20010904/DTD/svg10.dtd">
<svg version="1.0" xmlns="http://www.w3.org/2000/svg"
 width="87.000000pt" height="83.000000pt" viewBox="0 0 87.000000 83.000000"
 preserveAspectRatio="xMidYMid meet">
<metadata>
Created by potrace 1.16, written by Peter Selinger 2001-2019
</metadata>
<g transform="translate(0.000000,83.000000) scale(0.100000,-0.100000)"
fill="#000000" stroke="none">
<path d="M313 683 c-10 -3 -13 -51 -13 -191 l0 -187 -75 -89 c-41 -48 -75 -92
-75 -97 0 -26 32 0 95 75 39 47 73 85 76 85 4 1 47 -35 97 -79 81 -71 122 -96
122 -72 0 4 -47 48 -105 97 l-105 90 2 170 3 170 150 0 150 0 3 -46 c3 -40 0
-47 -21 -56 -55 -25 -35 -114 27 -121 71 -9 105 74 49 118 -23 18 -27 27 -24
66 4 73 1 74 -183 73 -88 0 -167 -3 -173 -6z"/>
</g>
</svg>
