<?xml version="1.0" standalone="no"?>
<!DOCTYPE svg PUBLIC "-//W3C//DTD SVG 20010904//EN"
 "http://www.w3.org/TR/2001/REC-SVG-20010904/DTD/svg10.dtd">
<svg version="1.0" xmlns="http://www.w3.org/2000/svg"
 width="81.000000pt" height="75.000000pt" viewBox="0 0 81.000000 75.000000"
 preserveAspectRatio="xMidYMid meet">
<metadata>
Created by potrace 1.16, written by Peter Selinger 2001-2019
</metadata>
<g transform="translate(0.000000,75.000000) scale(0.100000,-0.100000)"
fill="#000000" stroke="none">
<path d="M267 664 c-4 -4 -7 -91 -7 -193 l0 -186 -75 -88 c-41 -49 -75 -93
-75 -98 0 -26 32 0 95 76 39 47 74 85 79 85 5 0 43 -30 85 -67 114 -101 110
-98 122 -86 7 7 -24 39 -96 102 l-105 92 0 170 0 170 153 -3 152 -3 3 -29 c3
-22 -3 -34 -24 -51 -33 -26 -38 -80 -9 -101 21 -16 21 -16 -22 -38 -32 -16
-44 -36 -23 -36 6 0 26 7 45 14 l35 15 0 -42 c0 -34 -6 -48 -36 -78 -51 -52
-39 -73 14 -24 l43 38 32 -31 c31 -31 57 -41 57 -24 0 4 -18 26 -40 47 -33 32
-40 46 -40 77 0 43 -1 43 47 23 44 -18 53 -19 53 -2 0 8 -18 20 -40 27 -44 14
-48 21 -25 40 25 20 19 77 -9 96 -20 12 -26 26 -28 62 l-3 47 -176 3 c-96 1
-178 -1 -182 -4z"/>
</g>
</svg>
