<?xml version="1.0" standalone="no"?>
<!DOCTYPE svg PUBLIC "-//W3C//DTD SVG 20010904//EN"
 "http://www.w3.org/TR/2001/REC-SVG-20010904/DTD/svg10.dtd">
<svg version="1.0" xmlns="http://www.w3.org/2000/svg"
 width="77.000000pt" height="75.000000pt" viewBox="0 0 77.000000 75.000000"
 preserveAspectRatio="xMidYMid meet">
<metadata>
Created by potrace 1.16, written by Peter Selinger 2001-2019
</metadata>
<g transform="translate(0.000000,75.000000) scale(0.100000,-0.100000)"
fill="#000000" stroke="none">
<path d="M257 683 c-4 -3 -7 -90 -7 -192 l0 -186 -75 -87 c-41 -48 -75 -92
-75 -97 0 -27 31 -3 95 74 38 47 74 85 79 85 5 0 43 -30 85 -67 114 -100 110
-98 122 -86 7 7 -24 39 -96 102 l-105 92 0 170 0 170 153 -3 152 -3 3 -32 c2
-19 -1 -33 -7 -33 -40 0 -67 -84 -36 -110 22 -18 19 -24 -20 -43 -36 -17 -47
-37 -20 -37 9 0 29 7 44 15 34 17 41 12 41 -29 0 -22 -11 -42 -42 -73 -28 -28
-39 -46 -32 -53 6 -6 26 5 57 34 43 39 47 47 47 89 l0 46 42 -15 c57 -20 75
-1 22 23 -21 9 -41 18 -43 20 -1 1 4 12 13 25 22 31 20 52 -9 86 -15 18 -25
42 -25 60 0 63 4 62 -184 62 -95 0 -176 -3 -179 -7z"/>
</g>
</svg>
