<?xml version="1.0" standalone="no"?>
<!DOCTYPE svg PUBLIC "-//W3C//DTD SVG 20010904//EN"
 "http://www.w3.org/TR/2001/REC-SVG-20010904/DTD/svg10.dtd">
<svg version="1.0" xmlns="http://www.w3.org/2000/svg"
 width="77.000000pt" height="93.000000pt" viewBox="0 0 77.000000 93.000000"
 preserveAspectRatio="xMidYMid meet">
<metadata>
Created by potrace 1.16, written by Peter Selinger 2001-2019
</metadata>
<g transform="translate(0.000000,93.000000) scale(0.100000,-0.100000)"
fill="#000000" stroke="none">
<path d="M243 733 c-10 -3 -13 -52 -13 -192 l0 -187 -75 -88 c-41 -48 -75 -92
-75 -97 0 -26 33 0 95 75 39 47 73 85 76 85 3 1 48 -35 98 -79 86 -74 127 -98
115 -67 -2 7 -50 51 -105 97 l-99 85 2 170 3 170 150 0 150 0 3 -47 c3 -39 0
-47 -16 -52 -11 -4 -25 -20 -32 -36 -10 -25 -10 -34 4 -55 10 -15 24 -29 32
-32 10 -4 14 -22 14 -64 0 -46 3 -59 15 -59 12 0 15 13 15 59 0 52 3 61 25 75
19 12 25 25 25 51 0 24 -7 39 -25 53 -21 16 -25 29 -25 69 0 27 -5 54 -12 61
-12 12 -317 17 -345 5z"/>
</g>
</svg>
