<?xml version="1.0" standalone="no"?>
<!DOCTYPE svg PUBLIC "-//W3C//DTD SVG 20010904//EN"
 "http://www.w3.org/TR/2001/REC-SVG-20010904/DTD/svg10.dtd">
<svg version="1.0" xmlns="http://www.w3.org/2000/svg"
 width="275.000000pt" height="183.000000pt" viewBox="0 0 275.000000 183.000000"
 preserveAspectRatio="xMidYMid meet">
<metadata>
Created by potrace 1.16, written by Peter Selinger 2001-2019
</metadata>
<g transform="translate(0.000000,183.000000) scale(0.100000,-0.100000)"
fill="#000000" stroke="none">
<path d="M373 1623 c-10 -3 -13 -51 -13 -191 l0 -187 -75 -89 c-41 -48 -75
-92 -75 -97 0 -26 32 0 95 75 39 47 73 85 76 85 4 1 47 -35 97 -79 81 -71 122
-96 122 -72 0 4 -47 48 -105 97 l-105 90 2 170 3 170 150 0 150 0 3 -46 c3
-40 0 -47 -21 -56 -55 -25 -35 -114 27 -121 71 -9 105 74 49 118 -23 18 -27
27 -24 66 4 73 1 74 -183 73 -88 0 -167 -3 -173 -6z"/>
<path d="M1193 1623 c-10 -3 -13 -52 -13 -192 l0 -187 -75 -88 c-41 -48 -75
-92 -75 -97 0 -26 33 0 95 75 39 47 73 85 76 85 3 1 48 -35 98 -79 86 -74 127
-98 115 -67 -2 7 -50 51 -105 97 l-99 85 2 170 3 170 150 0 150 0 3 -47 c3
-39 0 -47 -16 -52 -11 -4 -25 -20 -32 -36 -10 -25 -10 -34 4 -55 10 -15 24
-29 32 -32 10 -4 14 -22 14 -64 0 -46 3 -59 15 -59 12 0 15 13 15 59 0 52 3
61 25 75 19 12 25 25 25 51 0 24 -7 39 -25 53 -21 16 -25 29 -25 69 0 27 -5
54 -12 61 -12 12 -317 17 -345 5z"/>
<path d="M2013 1623 c-10 -3 -13 -51 -13 -192 l0 -187 -75 -89 c-41 -49 -75
-92 -75 -97 0 -25 34 2 95 76 39 47 73 85 76 85 3 1 48 -35 98 -79 84 -72 121
-95 121 -72 0 5 -47 48 -105 98 l-105 89 3 170 2 170 150 0 150 0 3 -47 c3
-39 0 -47 -16 -52 -11 -4 -25 -20 -32 -36 -10 -25 -10 -34 4 -55 10 -15 24
-29 32 -32 10 -4 14 -22 14 -64 0 -46 3 -59 15 -59 11 0 15 12 15 45 0 50 2
51 53 30 33 -14 47 -12 47 7 0 4 -18 15 -40 24 -38 15 -40 18 -25 34 24 26 19
75 -10 98 -21 16 -25 29 -25 69 0 27 -5 54 -12 61 -12 12 -317 17 -345 5z"/>
<path d="M367 783 c-4 -3 -7 -89 -7 -191 l0 -185 -75 -88 c-41 -48 -75 -92
-75 -98 0 -27 30 -3 95 74 38 47 73 85 78 85 4 0 49 -36 100 -80 85 -74 110
-90 107 -65 0 6 -44 48 -98 95 l-97 86 -3 172 -2 173 152 -3 153 -3 3 -28 c3
-20 -5 -35 -27 -56 -36 -34 -39 -63 -10 -92 11 -11 19 -22 17 -24 -2 -1 -18
-10 -35 -19 -18 -9 -33 -21 -33 -26 0 -14 12 -13 53 5 l36 15 3 -45 c4 -59 22
-59 26 0 2 25 5 45 6 45 2 0 20 -7 39 -15 45 -18 57 -19 57 -2 0 8 -18 20 -40
27 -44 14 -48 21 -25 40 24 20 18 68 -10 94 -16 15 -25 34 -25 54 0 63 4 62
-184 62 -95 0 -176 -3 -179 -7z"/>
<path d="M1187 783 c-4 -3 -7 -90 -7 -192 l0 -186 -75 -87 c-41 -48 -75 -92
-75 -97 0 -27 31 -3 95 74 38 47 74 85 79 85 5 0 43 -30 85 -67 114 -100 110
-98 122 -86 7 7 -24 39 -96 102 l-105 92 0 170 0 170 153 -3 152 -3 3 -32 c2
-19 -1 -33 -7 -33 -40 0 -67 -84 -36 -110 22 -18 19 -24 -20 -43 -36 -17 -47
-37 -20 -37 9 0 29 7 44 15 34 17 41 12 41 -29 0 -22 -11 -42 -42 -73 -28 -28
-39 -46 -32 -53 6 -6 26 5 57 34 43 39 47 47 47 89 l0 46 42 -15 c57 -20 75
-1 22 23 -21 9 -41 18 -43 20 -1 1 4 12 13 25 22 31 20 52 -9 86 -15 18 -25
42 -25 60 0 63 4 62 -184 62 -95 0 -176 -3 -179 -7z"/>
<path d="M2007 784 c-4 -4 -7 -91 -7 -193 l0 -186 -75 -88 c-41 -49 -75 -93
-75 -98 0 -26 32 0 95 76 39 47 74 85 79 85 5 0 43 -30 85 -67 114 -101 110
-98 122 -86 7 7 -24 39 -96 102 l-105 92 0 170 0 170 153 -3 152 -3 3 -29 c3
-22 -3 -34 -24 -51 -33 -26 -38 -80 -9 -101 21 -16 21 -16 -22 -38 -32 -16
-44 -36 -23 -36 6 0 26 7 45 14 l35 15 0 -42 c0 -34 -6 -48 -36 -78 -51 -52
-39 -73 14 -24 l43 38 32 -31 c31 -31 57 -41 57 -24 0 4 -18 26 -40 47 -33 32
-40 46 -40 77 0 43 -1 43 47 23 44 -18 53 -19 53 -2 0 8 -18 20 -40 27 -44 14
-48 21 -25 40 25 20 19 77 -9 96 -20 12 -26 26 -28 62 l-3 47 -176 3 c-96 1
-178 -1 -182 -4z"/>
</g>
</svg>
