<?xml version="1.0" standalone="no"?>
<!DOCTYPE svg PUBLIC "-//W3C//DTD SVG 20010904//EN"
 "http://www.w3.org/TR/2001/REC-SVG-20010904/DTD/svg10.dtd">
<svg version="1.0" xmlns="http://www.w3.org/2000/svg"
 width="79.000000pt" height="85.000000pt" viewBox="0 0 79.000000 85.000000"
 preserveAspectRatio="xMidYMid meet">
<metadata>
Created by potrace 1.16, written by Peter Selinger 2001-2019
</metadata>
<g transform="translate(0.000000,85.000000) scale(0.100000,-0.100000)"
fill="#000000" stroke="none">
<path d="M257 703 c-4 -3 -7 -89 -7 -191 l0 -185 -75 -88 c-41 -48 -75 -92
-75 -98 0 -27 30 -3 95 74 38 47 73 85 78 85 4 0 49 -36 100 -80 85 -74 110
-90 107 -65 0 6 -44 48 -98 95 l-97 86 -3 172 -2 173 152 -3 153 -3 3 -28 c3
-20 -5 -35 -27 -56 -36 -34 -39 -63 -10 -92 11 -11 19 -22 17 -24 -2 -1 -18
-10 -35 -19 -18 -9 -33 -21 -33 -26 0 -14 12 -13 53 5 l36 15 3 -45 c4 -59 22
-59 26 0 2 25 5 45 6 45 2 0 20 -7 39 -15 45 -18 57 -19 57 -2 0 8 -18 20 -40
27 -44 14 -48 21 -25 40 24 20 18 68 -10 94 -16 15 -25 34 -25 54 0 63 4 62
-184 62 -95 0 -176 -3 -179 -7z"/>
</g>
</svg>
